<svg width="47" height="12" viewBox="0 0 47 12" fill="none" xmlns="http://www.w3.org/2000/svg">
<path d="M9.696 0.448994H8.1V8.53699H9.696V0.448994ZM7.404 5.96899C5.604 5.47699 4.8 4.24099 4.8 3.02899V2.96899H7.02V1.72099H4.8V0.508994H3.216V1.72099H0.984V2.96899H3.216V3.02899C3.216 4.32499 2.424 5.62099 0.624 6.14899L1.368 7.38499C2.652 7.01299 3.54 6.20899 4.032 5.20099C4.548 6.12499 5.412 6.85699 6.672 7.20499L7.404 5.96899ZM3.924 10.049V7.82899H2.34V11.309H9.972V10.049H3.924ZM21.5511 5.78899H20.0991C20.3751 4.24099 20.3751 3.11299 20.3751 2.08099V1.08499H12.7071V2.35699H18.8271C18.8271 3.30499 18.8031 4.38499 18.5271 5.78899H11.5671V7.06099H15.6951V11.501H17.3031V7.06099H21.5511V5.78899ZM26.6864 9.13699H32.7824V11.513H34.3664V7.87699H26.6864V9.13699ZM28.3664 2.11699H32.7464V3.54499H28.3664V2.11699ZM31.3544 5.82499V4.79299H34.3064V0.880994H26.8064V4.79299H29.7704V5.82499H25.5824V7.08499H35.5664V5.82499H31.3544ZM37.7255 9.49699H43.8935V11.465H45.4775V8.24899H37.7255V9.49699ZM42.4175 6.36499V5.57299H45.6335V4.37299H39.4295V3.65299H45.4055V0.664994H37.8455V1.86499H43.8455V2.53699H37.8695V5.57299H40.8335V6.36499H36.6215V7.62499H46.6295V6.36499H42.4175Z" fill="white"/>
</svg>
