<svg width="624" height="96" viewBox="0 0 312 48" fill="none" xmlns="http://www.w3.org/2000/svg">
<rect width="312" height="48" rx="24" fill="#9F70F1"/>
<path d="M141.892 27.4004V29H136.881V27.4004H141.892ZM137.544 19.0469V29H135.493V19.0469H137.544ZM150.792 23.791V24.2627C150.792 25.0192 150.689 25.6982 150.484 26.2998C150.279 26.9014 149.99 27.4141 149.616 27.8379C149.243 28.2572 148.796 28.5785 148.276 28.8018C147.761 29.0251 147.189 29.1367 146.561 29.1367C145.936 29.1367 145.364 29.0251 144.845 28.8018C144.33 28.5785 143.883 28.2572 143.505 27.8379C143.127 27.4141 142.833 26.9014 142.623 26.2998C142.418 25.6982 142.315 25.0192 142.315 24.2627V23.791C142.315 23.0299 142.418 22.3509 142.623 21.7539C142.828 21.1523 143.118 20.6396 143.491 20.2158C143.869 19.792 144.316 19.4684 144.831 19.2451C145.351 19.0218 145.923 18.9102 146.547 18.9102C147.176 18.9102 147.748 19.0218 148.263 19.2451C148.782 19.4684 149.229 19.792 149.603 20.2158C149.981 20.6396 150.272 21.1523 150.478 21.7539C150.687 22.3509 150.792 23.0299 150.792 23.791ZM148.721 24.2627V23.7773C148.721 23.2487 148.673 22.7839 148.577 22.3828C148.481 21.9818 148.34 21.6445 148.153 21.3711C147.966 21.0977 147.739 20.8926 147.47 20.7559C147.201 20.6146 146.893 20.5439 146.547 20.5439C146.201 20.5439 145.893 20.6146 145.624 20.7559C145.36 20.8926 145.134 21.0977 144.947 21.3711C144.765 21.6445 144.626 21.9818 144.53 22.3828C144.435 22.7839 144.387 23.2487 144.387 23.7773V24.2627C144.387 24.7868 144.435 25.2516 144.53 25.6572C144.626 26.0583 144.767 26.3978 144.954 26.6758C145.141 26.9492 145.369 27.1566 145.638 27.2979C145.907 27.4391 146.214 27.5098 146.561 27.5098C146.907 27.5098 147.215 27.4391 147.483 27.2979C147.752 27.1566 147.978 26.9492 148.16 26.6758C148.342 26.3978 148.481 26.0583 148.577 25.6572C148.673 25.2516 148.721 24.7868 148.721 24.2627ZM160.157 23.7979V27.7422C160.002 27.929 159.763 28.1318 159.439 28.3506C159.116 28.5648 158.699 28.7493 158.188 28.9043C157.678 29.0592 157.061 29.1367 156.336 29.1367C155.693 29.1367 155.108 29.0319 154.579 28.8223C154.05 28.6081 153.595 28.2959 153.212 27.8857C152.834 27.4756 152.542 26.9743 152.337 26.3818C152.132 25.7848 152.029 25.1035 152.029 24.3379V23.7158C152.029 22.9502 152.127 22.2689 152.323 21.6719C152.524 21.0749 152.809 20.5713 153.178 20.1611C153.547 19.751 153.987 19.4388 154.497 19.2246C155.007 19.0104 155.575 18.9033 156.199 18.9033C157.065 18.9033 157.776 19.0446 158.332 19.3271C158.888 19.6051 159.312 19.9925 159.604 20.4893C159.9 20.9814 160.082 21.5465 160.15 22.1846H158.161C158.111 21.8473 158.015 21.5534 157.874 21.3027C157.733 21.0521 157.53 20.8561 157.266 20.7148C157.006 20.5736 156.669 20.5029 156.254 20.5029C155.912 20.5029 155.607 20.5736 155.338 20.7148C155.074 20.8516 154.85 21.0544 154.668 21.3232C154.486 21.5921 154.347 21.9248 154.251 22.3213C154.155 22.7178 154.107 23.1781 154.107 23.7021V24.3379C154.107 24.8574 154.158 25.3177 154.258 25.7188C154.358 26.1152 154.506 26.4502 154.702 26.7236C154.903 26.9925 155.149 27.1953 155.44 27.332C155.732 27.4688 156.072 27.5371 156.459 27.5371C156.783 27.5371 157.051 27.5098 157.266 27.4551C157.484 27.4004 157.66 27.3343 157.792 27.2568C157.929 27.1748 158.034 27.0973 158.106 27.0244V25.2607H156.233V23.7979H160.157ZM167.479 19.0469V29H165.435V19.0469H167.479ZM177.5 19.0469V29H175.449L171.45 22.3281V29H169.399V19.0469H171.45L175.456 25.7256V19.0469H177.5Z" fill="white"/>
</svg>
