<svg width="166" height="24" viewBox="0 0 83 12" fill="none" xmlns="http://www.w3.org/2000/svg">
<path d="M8.508 0.411444V11.5234H10.032V0.411444H8.508ZM7.176 4.64744V5.93144H9.012V4.64744H7.176ZM6.072 0.579444V11.0194H7.572V0.579444H6.072ZM0.792 1.55144V8.75144H5.184V1.55144H0.792ZM3.696 2.79944V7.50344H2.28V2.79944H3.696ZM14.2311 2.28344V2.69144C14.2311 3.95144 13.4391 5.24744 11.6151 5.76344L12.3591 6.99944C14.5191 6.39944 15.5391 4.64744 15.5391 2.69144V2.28344H14.2311ZM14.5311 2.28344V2.69144C14.5311 4.55144 15.5751 6.20744 17.7351 6.77144L18.4551 5.52344C16.6431 5.05544 15.8271 3.85544 15.8271 2.69144V2.28344H14.5311ZM11.9871 1.57544V2.82344H18.0591V1.57544H11.9871ZM14.2311 0.435444V2.12744H15.8271V0.435444H14.2311ZM19.1511 0.423444V7.10744H20.7591V0.423444H19.1511ZM16.9911 7.29944C14.6391 7.29944 13.1991 8.07944 13.1991 9.41144C13.1991 10.7554 14.6391 11.5234 16.9911 11.5234C19.3431 11.5234 20.8071 10.7554 20.8071 9.41144C20.8071 8.07944 19.3431 7.29944 16.9911 7.29944ZM16.9911 8.52344C18.4431 8.52344 19.2111 8.81144 19.2111 9.41144C19.2111 10.0234 18.4431 10.3114 16.9911 10.3114C15.5511 10.3114 14.7951 10.0234 14.7951 9.41144C14.7951 8.81144 15.5511 8.52344 16.9911 8.52344ZM32.6504 0.399444V11.5114H34.2584V0.399444H32.6504ZM33.8384 4.64744V5.95544H35.7944V4.64744H33.8384ZM29.7344 1.55144V1.82744C29.7344 4.83944 28.3544 6.87944 25.4384 8.39144L26.3264 9.60344C30.0224 7.74344 31.2944 4.88744 31.2944 1.55144H29.7344ZM26.0504 1.55144V2.83544H30.5504V1.55144H26.0504ZM37.8575 3.17144V4.44344H45.5255V3.17144H37.8575ZM37.8575 0.591444V3.74744H39.4415V0.591444H37.8575ZM36.5975 5.39144V6.66344H46.6535V5.39144H36.5975ZM41.5895 7.37144C39.1895 7.37144 37.7255 8.11544 37.7255 9.43544C37.7255 10.7434 39.1895 11.4994 41.5895 11.4994C43.9895 11.4994 45.4415 10.7434 45.4415 9.43544C45.4415 8.11544 43.9895 7.37144 41.5895 7.37144ZM41.5895 8.59544C43.0775 8.59544 43.8335 8.85944 43.8335 9.43544C43.8335 9.99944 43.0775 10.2754 41.5895 10.2754C40.1015 10.2754 39.3455 9.99944 39.3455 9.43544C39.3455 8.85944 40.1015 8.59544 41.5895 8.59544ZM54.7765 0.423444V8.72744H56.3725V0.423444H54.7765ZM55.9165 3.80744V5.11544H57.8485V3.80744H55.9165ZM47.6245 1.57544V2.82344H54.1645V1.57544H47.6245ZM50.9005 3.21944C49.2925 3.21944 48.1645 4.09544 48.1645 5.36744C48.1645 6.63944 49.2925 7.50344 50.9005 7.50344C52.4965 7.50344 53.6245 6.63944 53.6245 5.36744C53.6245 4.09544 52.4965 3.21944 50.9005 3.21944ZM50.9005 4.43144C51.6085 4.43144 52.1005 4.76744 52.1005 5.36744C52.1005 5.96744 51.6085 6.29144 50.9005 6.29144C50.1925 6.29144 49.7005 5.96744 49.7005 5.36744C49.7005 4.76744 50.1925 4.43144 50.9005 4.43144ZM50.0965 0.399444V2.18744H51.6925V0.399444H50.0965ZM49.2085 10.0594V11.3314H56.7685V10.0594H49.2085ZM49.2085 8.10344V10.6114H50.8045V8.10344H49.2085ZM63.9199 7.43144V11.5234H65.5519V7.43144H63.9199ZM67.7599 7.43144V11.5234H69.3919V7.43144H67.7599ZM61.6519 6.59144V7.87544H71.7199V6.59144H61.6519ZM66.6559 0.783444C64.2919 0.783444 62.6479 1.75544 62.6479 3.27944C62.6479 4.77944 64.2919 5.75144 66.6559 5.75144C69.0319 5.75144 70.6759 4.77944 70.6759 3.27944C70.6759 1.75544 69.0319 0.783444 66.6559 0.783444ZM66.6559 2.05544C68.1199 2.05544 69.0319 2.48744 69.0319 3.27944C69.0319 4.05944 68.1199 4.49144 66.6559 4.49144C65.2039 4.49144 64.2799 4.05944 64.2799 3.27944C64.2799 2.48744 65.2039 2.05544 66.6559 2.05544ZM80.4189 0.399444V11.5474H82.0149V0.399444H80.4189ZM78.4749 4.28744V5.57144H80.7909V4.28744H78.4749ZM75.2589 2.16344V3.14744C75.2589 5.21144 74.3829 7.33544 72.5229 8.21144L73.4589 9.47144C75.5349 8.45144 76.5189 5.85944 76.5189 3.14744V2.16344H75.2589ZM75.6309 2.16344V3.14744C75.6309 5.77544 76.5909 8.25944 78.6789 9.24344L79.6029 7.99544C77.7429 7.15544 76.8789 5.10344 76.8789 3.14744V2.16344H75.6309ZM72.9789 1.47944V2.76344H79.1589V1.47944H72.9789Z" fill="white"/>
</svg>
