<svg width="188" height="24" viewBox="0 0 94 12" fill="none" xmlns="http://www.w3.org/2000/svg">
<path d="M9.684 0.907649H8.1V6.47565H9.684V0.907649ZM7.296 5.10765C5.508 4.57965 4.716 3.29565 4.716 1.98765V1.15965H3.108V1.98765C3.108 3.33165 2.304 4.72365 0.468 5.28765L1.236 6.52365C2.532 6.12765 3.432 5.28765 3.936 4.24365C4.428 5.20365 5.28 5.97165 6.54 6.34365L7.296 5.10765ZM3.912 10.6396V9.95565H9.696V6.96765H2.328V8.17965H8.124V8.82765H2.34V11.8636H9.972V10.6396H3.912ZM15.8391 1.74765H14.2551V3.35565C14.2551 5.50365 13.3431 7.63965 11.4111 8.46765L12.3591 9.77565C13.6791 9.15165 14.5791 7.96365 15.0711 6.48765C15.5631 7.84365 16.4151 8.93565 17.6871 9.51165L18.5871 8.22765C16.7151 7.42365 15.8391 5.40765 15.8391 3.35565V1.74765ZM19.1271 0.883649V11.9716H20.7111V0.883649H19.1271ZM22.9901 1.72365V2.98365H26.5901C26.3381 4.53165 24.9701 5.81565 22.5101 6.48765L23.1701 7.74765C26.4581 6.79965 28.3061 4.72365 28.3061 1.72365H22.9901ZM25.7381 8.01165H24.1541V11.7556H31.6661V10.4956H25.7381V8.01165ZM31.2821 3.97965V0.895649H29.6981V8.80365H31.2821V5.27565H32.7581V3.97965H31.2821ZM45.8015 0.907649H44.2055V8.83965H45.8015V0.907649ZM38.3255 4.41165C38.3255 3.49965 38.9735 2.97165 39.7895 2.97165C40.6175 2.97165 41.2415 3.49965 41.2415 4.41165C41.2415 5.29965 40.6175 5.83965 39.7895 5.83965C38.9735 5.83965 38.3255 5.29965 38.3255 4.41165ZM42.7895 4.41165C42.7895 2.77965 41.4815 1.60365 39.7895 1.60365C38.0975 1.60365 36.7775 2.77965 36.7775 4.41165C36.7775 6.01965 38.0975 7.20765 39.7895 7.20765C41.4815 7.20765 42.7895 6.01965 42.7895 4.41165ZM40.0295 10.4956V8.05965H38.4455V11.7556H46.0775V10.4956H40.0295ZM48.2725 2.03565V3.29565H51.9565C51.7285 5.74365 50.5045 7.47165 47.6845 8.82765L48.5125 10.0756C52.4365 8.17965 53.5765 5.41965 53.5765 2.03565H48.2725ZM55.2685 0.883649V11.9356H56.8645V0.883649H55.2685ZM67.3639 5.11965H66.1279C66.3919 4.21965 66.4879 3.24765 66.4879 2.20365H62.1559V3.46365H64.9159C64.7239 5.62365 63.7519 7.21965 61.5439 8.53965L62.4439 9.65565C64.0039 8.74365 65.0119 7.65165 65.6359 6.39165H67.3639V11.4556H68.8399V1.13565H67.3639V5.11965ZM69.6919 0.883649V11.9356H71.1919V0.883649H69.6919ZM77.0109 1.74765H75.4269V3.35565C75.4269 5.50365 74.5149 7.63965 72.5829 8.46765L73.5309 9.77565C74.8509 9.15165 75.7509 7.96365 76.2429 6.48765C76.7349 7.84365 77.5869 8.93565 78.8589 9.51165L79.7589 8.22765C77.8869 7.42365 77.0109 5.40765 77.0109 3.35565V1.74765ZM80.2989 0.883649V11.9716H81.8829V0.883649H80.2989ZM90.93 3.47565H86.55V2.43165H90.93V3.47565ZM92.478 1.21965H85.002V4.68765H92.478V1.21965ZM93.75 6.52365V5.27565H83.766V6.52365H87.954V7.21965H84.906V8.38365H90.978V8.95965H84.918V11.8636H92.826V10.6756H86.49V10.0516H92.538V7.21965H89.538V6.52365H93.75Z" fill="white"/>
</svg>
