<svg width="28" height="28" viewBox="0 0 28 28" fill="currentColor" xmlns="http://www.w3.org/2000/svg">
<path fill-rule="evenodd" clip-rule="evenodd" d="M14 3.50001C8.20097 3.50001 3.49996 8.20102 3.49996 14C3.49996 19.799 8.20097 24.5 14 24.5C19.799 24.5 24.5 19.799 24.5 14C24.5 8.20102 19.799 3.50001 14 3.50001ZM1.16663 14C1.16663 6.91235 6.91231 1.16667 14 1.16667C21.0876 1.16667 26.8333 6.91235 26.8333 14C26.8333 21.0877 21.0876 26.8333 14 26.8333C6.91231 26.8333 1.16663 21.0877 1.16663 14Z" />
<path fill-rule="evenodd" clip-rule="evenodd" d="M14 8.16667C14.6444 8.16667 15.1667 8.68901 15.1667 9.33334V14C15.1667 14.6443 14.6444 15.1667 14 15.1667C13.3557 15.1667 12.8334 14.6443 12.8334 14V9.33334C12.8334 8.68901 13.3557 8.16667 14 8.16667Z" />
<path fill-rule="evenodd" clip-rule="evenodd" d="M12.8334 18.6667C12.8334 18.0223 13.3557 17.5 14 17.5H14.0117C14.656 17.5 15.1784 18.0223 15.1784 18.6667C15.1784 19.311 14.656 19.8333 14.0117 19.8333H14C13.3557 19.8333 12.8334 19.311 12.8334 18.6667Z" />
</svg>
