<svg width="126" height="32" viewBox="0 0 126 32" fill="none" xmlns="http://www.w3.org/2000/svg">
<rect width="126" height="32" rx="16" fill="#5D5D80"/>
<path d="M53.2866 15.62C54.5706 15.356 55.4466 14.744 55.9386 13.94C56.4306 14.66 57.2586 15.212 58.4946 15.452L59.1066 14.228C57.4986 13.94 56.7426 13.172 56.6946 12.296H58.8546V11.072H56.6946V9.992H55.1106V11.072H52.9506V12.296H55.1106C55.0626 13.232 54.3066 14.084 52.6506 14.396L53.2866 15.62ZM59.2986 15.764C56.9826 16.076 54.3066 16.088 52.2906 16.088L52.4826 17.372C53.2746 17.372 54.1626 17.372 55.0986 17.336V20.696H56.6826V17.24C57.5826 17.168 58.5066 17.06 59.3946 16.904L59.2986 15.764ZM59.9226 9.98V21.02H61.5066V9.98H59.9226ZM72.9657 15.02C70.4457 14.612 69.0897 12.956 69.0897 11.384V10.592H67.3977V11.384C67.3977 12.92 66.0297 14.612 63.5337 15.02L64.1817 16.328C66.1137 15.98 67.5177 14.936 68.2377 13.58C68.9577 14.948 70.3737 15.98 72.3177 16.328L72.9657 15.02ZM69.0417 18.452V15.98H67.4577V18.452H63.2937V19.724H73.3017V18.452H69.0417Z" fill="white"/>
</svg>
