<svg width="126" height="32" viewBox="0 0 126 32" fill="none" xmlns="http://www.w3.org/2000/svg">
<rect width="126" height="32" rx="16" fill="#9F70F1"/>
<path d="M58.6746 10.796H56.3346V9.884H54.7506V10.796H52.3986V11.924H58.6746V10.796ZM54.3426 13.832C54.3426 13.424 54.7986 13.22 55.5426 13.22C56.2866 13.22 56.7306 13.424 56.7306 13.832C56.7306 14.24 56.2866 14.456 55.5426 14.456C54.7986 14.456 54.3426 14.24 54.3426 13.832ZM58.9506 15.788C58.1106 15.884 57.2346 15.956 56.3346 15.992V15.428C57.5106 15.248 58.2306 14.672 58.2306 13.832C58.2306 12.824 57.1746 12.2 55.5426 12.2C53.9106 12.2 52.8426 12.824 52.8426 13.832C52.8426 14.672 53.5746 15.248 54.7506 15.428V16.052C53.8146 16.076 52.9146 16.076 52.1226 16.076L52.2906 17.288C54.2346 17.288 56.7546 17.264 59.0706 16.856L58.9506 15.788ZM53.5266 19.172H59.4306V21.044H61.0146V17.948H53.5266V19.172ZM62.4066 13.148H61.0146V9.98H59.4306V17.516H61.0146V14.444H62.4066V13.148ZM72.4737 9.992H70.8777V17.924H72.4737V9.992ZM64.9977 13.496C64.9977 12.584 65.6457 12.056 66.4617 12.056C67.2897 12.056 67.9137 12.584 67.9137 13.496C67.9137 14.384 67.2897 14.924 66.4617 14.924C65.6457 14.924 64.9977 14.384 64.9977 13.496ZM69.4617 13.496C69.4617 11.864 68.1537 10.688 66.4617 10.688C64.7697 10.688 63.4497 11.864 63.4497 13.496C63.4497 15.104 64.7697 16.292 66.4617 16.292C68.1537 16.292 69.4617 15.104 69.4617 13.496ZM66.7017 19.58V17.144H65.1177V20.84H72.7497V19.58H66.7017Z" fill="white"/>
</svg>
